<svg xmlns="http://www.w3.org/2000/svg" viewBox="0 0 512 512">
  <defs>
    <style>
      .book { fill: none; stroke: #16a5a3; stroke-width: 16; stroke-linecap: round; stroke-linejoin: round; }
      .book-solid { fill: #16a5a3; }
    </style>
  </defs>

  <!-- Left pages - multiple layers for depth -->
  <path class="book" d="M 256 140 Q 200 160 140 160 L 140 380 Q 200 360 256 380 Z" opacity="0.2"/>
  <path class="book" d="M 256 140 Q 210 155 165 155 L 165 375 Q 210 355 256 375 Z" opacity="0.35"/>
  <path class="book" d="M 256 140 Q 220 150 180 150 L 180 370 Q 220 350 256 370 Z" opacity="0.5"/>
  <path class="book" d="M 256 140 Q 230 145 195 145 L 195 365 Q 230 345 256 365 Z" opacity="0.65"/>
  <path class="book" d="M 256 140 Q 238 143 210 143 L 210 363 Q 238 343 256 363 Z" opacity="0.8"/>
  <path class="book" d="M 256 140 Q 243 142 225 142 L 225 362 Q 243 342 256 362 Z"/>

  <!-- Right pages - multiple layers for depth -->
  <path class="book" d="M 256 140 Q 312 160 372 160 L 372 380 Q 312 360 256 380 Z" opacity="0.2"/>
  <path class="book" d="M 256 140 Q 302 155 347 155 L 347 375 Q 302 355 256 375 Z" opacity="0.35"/>
  <path class="book" d="M 256 140 Q 292 150 332 150 L 332 370 Q 292 350 256 370 Z" opacity="0.5"/>
  <path class="book" d="M 256 140 Q 282 145 317 145 L 317 365 Q 282 345 256 365 Z" opacity="0.65"/>
  <path class="book" d="M 256 140 Q 274 143 302 143 L 302 363 Q 274 343 256 363 Z" opacity="0.8"/>
  <path class="book" d="M 256 140 Q 269 142 287 142 L 287 362 Q 269 342 256 362 Z"/>

  <!-- Center binding/spine -->
  <ellipse class="book-solid" cx="256" cy="380" rx="35" ry="14" opacity="0.9"/>
  <rect class="book-solid" x="244" y="140" width="24" height="240"/>
</svg>
